<mxfile host="app.diagrams.net" modified="2024-10-21T15:58:57.807Z" agent="Mozilla/5.0 (Windows NT 10.0; Win64; x64) AppleWebKit/537.36 (KHTML, like Gecko) Chrome/129.0.0.0 Safari/537.36" etag="Y2r7Z571lQi1-Nxhk4_S" version="24.6.5" type="device">
  <diagram name="Page-1" id="5CJF0QwscVmytZPdar9B">
    <mxGraphModel dx="868" dy="457" grid="1" gridSize="10" guides="1" tooltips="1" connect="1" arrows="1" fold="1" page="1" pageScale="1" pageWidth="827" pageHeight="1169" math="0" shadow="0">
      <root>
        <mxCell id="0" />
        <mxCell id="1" parent="0" />
        <mxCell id="KveJWd_gNbtQTZYsvec0-117" value="" style="group" vertex="1" connectable="0" parent="1">
          <mxGeometry x="80" y="30" width="520" height="210" as="geometry" />
        </mxCell>
        <mxCell id="KveJWd_gNbtQTZYsvec0-82" value="" style="rounded=0;whiteSpace=wrap;html=1;fillColor=#f8cecc;strokeColor=#b85450;fillOpacity=75;strokeOpacity=75;" vertex="1" parent="KveJWd_gNbtQTZYsvec0-117">
          <mxGeometry x="14.444444444444441" y="102.85714285714286" width="274.4444444444444" height="42.85714285714286" as="geometry" />
        </mxCell>
        <mxCell id="KveJWd_gNbtQTZYsvec0-83" value="" style="rounded=0;whiteSpace=wrap;html=1;fillColor=#f8cecc;strokeColor=#b85450;fillOpacity=75;strokeOpacity=75;" vertex="1" parent="KveJWd_gNbtQTZYsvec0-117">
          <mxGeometry x="375.5555555555555" y="102.85714285714286" width="57.777777777777764" height="42.85714285714286" as="geometry" />
        </mxCell>
        <mxCell id="KveJWd_gNbtQTZYsvec0-84" value="" style="rounded=0;whiteSpace=wrap;html=1;fillColor=#d5e8d4;strokeColor=#82b366;fillOpacity=75;strokeOpacity=75;" vertex="1" parent="KveJWd_gNbtQTZYsvec0-117">
          <mxGeometry x="317.7777777777777" y="102.85714285714286" width="57.777777777777764" height="42.85714285714286" as="geometry" />
        </mxCell>
        <mxCell id="KveJWd_gNbtQTZYsvec0-85" value="" style="rounded=0;whiteSpace=wrap;html=1;fillColor=#d5e8d4;strokeColor=#82b366;fillOpacity=75;strokeOpacity=75;" vertex="1" parent="KveJWd_gNbtQTZYsvec0-117">
          <mxGeometry x="433.3333333333333" y="102.85714285714286" width="57.777777777777764" height="42.85714285714286" as="geometry" />
        </mxCell>
        <mxCell id="KveJWd_gNbtQTZYsvec0-86" value="" style="rounded=0;whiteSpace=wrap;html=1;fillColor=#dae8fc;strokeColor=#6c8ebf;fillOpacity=75;strokeOpacity=75;" vertex="1" parent="KveJWd_gNbtQTZYsvec0-117">
          <mxGeometry x="288.8888888888888" y="102.85714285714286" width="28.888888888888882" height="42.85714285714286" as="geometry" />
        </mxCell>
        <mxCell id="KveJWd_gNbtQTZYsvec0-87" value="&lt;div style=&quot;font-size: 14px;&quot;&gt;&lt;b style=&quot;font-size: 14px;&quot;&gt;Started post doc&lt;/b&gt;&lt;/div&gt;" style="rounded=0;whiteSpace=wrap;html=1;align=left;spacingLeft=5;fillColor=none;strokeColor=none;fontSize=14;" vertex="1" parent="KveJWd_gNbtQTZYsvec0-117">
          <mxGeometry x="28.888888888888882" y="16.07142857142857" width="144.4444444444444" height="85.71428571428572" as="geometry" />
        </mxCell>
        <mxCell id="KveJWd_gNbtQTZYsvec0-88" value="" style="endArrow=block;html=1;rounded=0;strokeWidth=3;endFill=1;" edge="1" parent="KveJWd_gNbtQTZYsvec0-117">
          <mxGeometry width="50" height="50" relative="1" as="geometry">
            <mxPoint y="145.71428571428575" as="sourcePoint" />
            <mxPoint x="520" y="145.71428571428575" as="targetPoint" />
          </mxGeometry>
        </mxCell>
        <mxCell id="KveJWd_gNbtQTZYsvec0-89" value="" style="endArrow=oval;html=1;rounded=0;targetPerimeterSpacing=0;endFill=1;entryX=0;entryY=0.5;entryDx=0;entryDy=0;" edge="1" parent="KveJWd_gNbtQTZYsvec0-117" target="KveJWd_gNbtQTZYsvec0-87">
          <mxGeometry width="50" height="50" relative="1" as="geometry">
            <mxPoint x="28.888888888888882" y="145.71428571428575" as="sourcePoint" />
            <mxPoint x="28.888888888888882" y="-111.42857142857144" as="targetPoint" />
          </mxGeometry>
        </mxCell>
        <mxCell id="KveJWd_gNbtQTZYsvec0-90" value="2009" style="text;html=1;align=right;verticalAlign=middle;whiteSpace=wrap;rounded=0;horizontal=0;fontSize=11;fontColor=#808080;spacingTop=0;spacingRight=5;" vertex="1" parent="KveJWd_gNbtQTZYsvec0-117">
          <mxGeometry x="14.444444444444441" y="145.71428571428575" width="28.888888888888882" height="64.28571428571428" as="geometry" />
        </mxCell>
        <mxCell id="KveJWd_gNbtQTZYsvec0-91" value="2010" style="text;html=1;align=right;verticalAlign=middle;whiteSpace=wrap;rounded=0;horizontal=0;fontSize=11;fontColor=#808080;spacingTop=0;spacingRight=5;" vertex="1" parent="KveJWd_gNbtQTZYsvec0-117">
          <mxGeometry x="41.888888888888886" y="145.71428571428575" width="28.888888888888882" height="64.28571428571428" as="geometry" />
        </mxCell>
        <mxCell id="KveJWd_gNbtQTZYsvec0-92" value="2011" style="text;html=1;align=right;verticalAlign=middle;whiteSpace=wrap;rounded=0;horizontal=0;fontSize=11;fontColor=#808080;spacingTop=0;spacingRight=5;" vertex="1" parent="KveJWd_gNbtQTZYsvec0-117">
          <mxGeometry x="70.77777777777776" y="145.71428571428575" width="28.888888888888882" height="64.28571428571428" as="geometry" />
        </mxCell>
        <mxCell id="KveJWd_gNbtQTZYsvec0-93" value="2012" style="text;html=1;align=right;verticalAlign=middle;whiteSpace=wrap;rounded=0;horizontal=0;fontSize=11;fontColor=#808080;spacingTop=0;spacingRight=5;" vertex="1" parent="KveJWd_gNbtQTZYsvec0-117">
          <mxGeometry x="101.1111111111111" y="145.71428571428575" width="28.888888888888882" height="64.28571428571428" as="geometry" />
        </mxCell>
        <mxCell id="KveJWd_gNbtQTZYsvec0-94" value="2013" style="text;html=1;align=right;verticalAlign=middle;whiteSpace=wrap;rounded=0;horizontal=0;fontSize=11;fontColor=#808080;spacingTop=0;spacingRight=5;" vertex="1" parent="KveJWd_gNbtQTZYsvec0-117">
          <mxGeometry x="130" y="145.71428571428575" width="28.888888888888882" height="64.28571428571428" as="geometry" />
        </mxCell>
        <mxCell id="KveJWd_gNbtQTZYsvec0-95" value="2014" style="text;html=1;align=right;verticalAlign=middle;whiteSpace=wrap;rounded=0;horizontal=0;fontSize=11;fontColor=#808080;spacingTop=0;spacingRight=5;" vertex="1" parent="KveJWd_gNbtQTZYsvec0-117">
          <mxGeometry x="157.4444444444444" y="145.71428571428575" width="28.888888888888882" height="64.28571428571428" as="geometry" />
        </mxCell>
        <mxCell id="KveJWd_gNbtQTZYsvec0-96" value="2015" style="text;html=1;align=right;verticalAlign=middle;whiteSpace=wrap;rounded=0;horizontal=0;fontSize=11;fontColor=#808080;spacingTop=0;spacingRight=5;" vertex="1" parent="KveJWd_gNbtQTZYsvec0-117">
          <mxGeometry x="186.33333333333331" y="145.71428571428575" width="28.888888888888882" height="64.28571428571428" as="geometry" />
        </mxCell>
        <mxCell id="KveJWd_gNbtQTZYsvec0-97" value="2016" style="text;html=1;align=right;verticalAlign=middle;whiteSpace=wrap;rounded=0;horizontal=0;fontSize=11;fontColor=#808080;spacingTop=0;spacingRight=5;" vertex="1" parent="KveJWd_gNbtQTZYsvec0-117">
          <mxGeometry x="216.66666666666666" y="145.71428571428575" width="28.888888888888882" height="64.28571428571428" as="geometry" />
        </mxCell>
        <mxCell id="KveJWd_gNbtQTZYsvec0-98" value="2017" style="text;html=1;align=right;verticalAlign=middle;whiteSpace=wrap;rounded=0;horizontal=0;fontSize=11;fontColor=#808080;spacingTop=0;spacingRight=5;" vertex="1" parent="KveJWd_gNbtQTZYsvec0-117">
          <mxGeometry x="245.55555555555551" y="145.71428571428575" width="28.888888888888882" height="64.28571428571428" as="geometry" />
        </mxCell>
        <mxCell id="KveJWd_gNbtQTZYsvec0-99" value="2018" style="text;html=1;align=right;verticalAlign=middle;whiteSpace=wrap;rounded=0;horizontal=0;fontSize=11;fontColor=#808080;spacingTop=0;spacingRight=5;" vertex="1" parent="KveJWd_gNbtQTZYsvec0-117">
          <mxGeometry x="274.4444444444444" y="145.71428571428575" width="28.888888888888882" height="64.28571428571428" as="geometry" />
        </mxCell>
        <mxCell id="KveJWd_gNbtQTZYsvec0-100" value="&lt;b style=&quot;font-size: 14px;&quot;&gt;Research&lt;/b&gt;&lt;div style=&quot;font-size: 14px;&quot;&gt;&lt;b style=&quot;font-size: 14px;&quot;&gt;Fellowships&lt;/b&gt;&lt;/div&gt;" style="rounded=0;whiteSpace=wrap;html=1;align=right;spacingLeft=0;fillColor=none;strokeColor=none;fontSize=14;spacingRight=5;" vertex="1" parent="KveJWd_gNbtQTZYsvec0-117">
          <mxGeometry x="131.44444444444443" y="34.28571428571429" width="128.55555555555551" height="49.28571428571429" as="geometry" />
        </mxCell>
        <mxCell id="KveJWd_gNbtQTZYsvec0-101" value="" style="endArrow=oval;html=1;rounded=0;targetPerimeterSpacing=0;endFill=1;entryX=1;entryY=0.5;entryDx=0;entryDy=0;" edge="1" parent="KveJWd_gNbtQTZYsvec0-117" target="KveJWd_gNbtQTZYsvec0-100">
          <mxGeometry width="50" height="50" relative="1" as="geometry">
            <mxPoint x="260" y="145.71428571428575" as="sourcePoint" />
            <mxPoint x="260" y="-4.2857142857142865" as="targetPoint" />
          </mxGeometry>
        </mxCell>
        <mxCell id="KveJWd_gNbtQTZYsvec0-102" value="&lt;b style=&quot;font-size: 14px;&quot;&gt;PGDE&lt;/b&gt;" style="rounded=0;whiteSpace=wrap;html=1;align=left;spacingLeft=5;fillColor=none;strokeColor=none;fontSize=14;" vertex="1" parent="KveJWd_gNbtQTZYsvec0-117">
          <mxGeometry x="288.8888888888888" width="72.2222222222222" height="32.14285714285714" as="geometry" />
        </mxCell>
        <mxCell id="KveJWd_gNbtQTZYsvec0-103" value="" style="endArrow=oval;html=1;rounded=0;targetPerimeterSpacing=0;endFill=1;entryX=0;entryY=0.5;entryDx=0;entryDy=0;" edge="1" parent="KveJWd_gNbtQTZYsvec0-117" target="KveJWd_gNbtQTZYsvec0-102">
          <mxGeometry width="50" height="50" relative="1" as="geometry">
            <mxPoint x="288.8888888888888" y="145.71428571428575" as="sourcePoint" />
            <mxPoint x="288.8888888888888" y="-47.142857142857146" as="targetPoint" />
          </mxGeometry>
        </mxCell>
        <mxCell id="KveJWd_gNbtQTZYsvec0-104" value="&lt;b style=&quot;font-size: 14px;&quot;&gt;PHS&lt;/b&gt;" style="rounded=0;whiteSpace=wrap;html=1;align=left;spacingLeft=5;fillColor=none;strokeColor=none;fontSize=14;" vertex="1" parent="KveJWd_gNbtQTZYsvec0-117">
          <mxGeometry x="317.7777777777777" y="68.57142857142858" width="44.77777777777777" height="21.42857142857143" as="geometry" />
        </mxCell>
        <mxCell id="KveJWd_gNbtQTZYsvec0-105" value="" style="endArrow=oval;html=1;rounded=0;targetPerimeterSpacing=0;endFill=1;entryX=0;entryY=0.5;entryDx=0;entryDy=0;" edge="1" parent="KveJWd_gNbtQTZYsvec0-117" target="KveJWd_gNbtQTZYsvec0-104">
          <mxGeometry width="50" height="50" relative="1" as="geometry">
            <mxPoint x="317.7777777777777" y="145.71428571428575" as="sourcePoint" />
            <mxPoint x="316.3333333333333" y="62.14285714285715" as="targetPoint" />
          </mxGeometry>
        </mxCell>
        <mxCell id="KveJWd_gNbtQTZYsvec0-106" value="2019" style="text;html=1;align=right;verticalAlign=middle;whiteSpace=wrap;rounded=0;horizontal=0;fontSize=11;fontColor=#808080;spacingTop=0;spacingRight=5;" vertex="1" parent="KveJWd_gNbtQTZYsvec0-117">
          <mxGeometry x="303.3333333333333" y="145.71428571428575" width="28.888888888888882" height="64.28571428571428" as="geometry" />
        </mxCell>
        <mxCell id="KveJWd_gNbtQTZYsvec0-107" value="2020" style="text;html=1;align=right;verticalAlign=middle;whiteSpace=wrap;rounded=0;horizontal=0;fontSize=11;fontColor=#808080;spacingTop=0;spacingRight=5;" vertex="1" parent="KveJWd_gNbtQTZYsvec0-117">
          <mxGeometry x="332.2222222222222" y="145.71428571428575" width="28.888888888888882" height="64.28571428571428" as="geometry" />
        </mxCell>
        <mxCell id="KveJWd_gNbtQTZYsvec0-108" value="2021" style="text;html=1;align=right;verticalAlign=middle;whiteSpace=wrap;rounded=0;horizontal=0;fontSize=11;fontColor=#808080;spacingTop=0;spacingRight=5;" vertex="1" parent="KveJWd_gNbtQTZYsvec0-117">
          <mxGeometry x="361.1111111111111" y="145.71428571428575" width="28.888888888888882" height="64.28571428571428" as="geometry" />
        </mxCell>
        <mxCell id="KveJWd_gNbtQTZYsvec0-109" value="2023" style="text;html=1;align=right;verticalAlign=middle;whiteSpace=wrap;rounded=0;horizontal=0;fontSize=11;fontColor=#808080;spacingTop=0;spacingRight=5;" vertex="1" parent="KveJWd_gNbtQTZYsvec0-117">
          <mxGeometry x="418.8888888888888" y="145.71428571428575" width="28.888888888888882" height="64.28571428571428" as="geometry" />
        </mxCell>
        <mxCell id="KveJWd_gNbtQTZYsvec0-110" value="2022" style="text;html=1;align=right;verticalAlign=middle;whiteSpace=wrap;rounded=0;horizontal=0;fontSize=11;fontColor=#808080;spacingTop=0;spacingRight=5;" vertex="1" parent="KveJWd_gNbtQTZYsvec0-117">
          <mxGeometry x="389.99999999999994" y="145.71428571428575" width="28.888888888888882" height="64.28571428571428" as="geometry" />
        </mxCell>
        <mxCell id="KveJWd_gNbtQTZYsvec0-111" value="2024" style="text;html=1;align=right;verticalAlign=middle;whiteSpace=wrap;rounded=0;horizontal=0;fontSize=11;fontColor=#808080;spacingTop=0;spacingRight=5;" vertex="1" parent="KveJWd_gNbtQTZYsvec0-117">
          <mxGeometry x="447.7777777777777" y="145.71428571428575" width="28.888888888888882" height="64.28571428571428" as="geometry" />
        </mxCell>
        <mxCell id="KveJWd_gNbtQTZYsvec0-112" value="" style="endArrow=oval;html=1;rounded=0;targetPerimeterSpacing=0;endFill=1;entryX=0;entryY=0.5;entryDx=0;entryDy=0;" edge="1" parent="KveJWd_gNbtQTZYsvec0-117" target="KveJWd_gNbtQTZYsvec0-113">
          <mxGeometry width="50" height="50" relative="1" as="geometry">
            <mxPoint x="375.5555555555555" y="145.71428571428575" as="sourcePoint" />
            <mxPoint x="375.5555555555555" y="6.428571428571429" as="targetPoint" />
          </mxGeometry>
        </mxCell>
        <mxCell id="KveJWd_gNbtQTZYsvec0-113" value="&lt;b style=&quot;font-size: 14px;&quot;&gt;Oxford Uni&lt;/b&gt;" style="rounded=0;whiteSpace=wrap;html=1;align=left;spacingLeft=5;fillColor=none;strokeColor=none;fontSize=14;" vertex="1" parent="KveJWd_gNbtQTZYsvec0-117">
          <mxGeometry x="375.5555555555555" y="38.57142857142858" width="101.1111111111111" height="20.35714285714286" as="geometry" />
        </mxCell>
        <mxCell id="KveJWd_gNbtQTZYsvec0-114" value="&lt;b style=&quot;font-size: 14px;&quot;&gt;NSS&lt;/b&gt;" style="rounded=0;whiteSpace=wrap;html=1;align=left;spacingLeft=5;fillColor=none;strokeColor=none;fontSize=14;" vertex="1" parent="KveJWd_gNbtQTZYsvec0-117">
          <mxGeometry x="433.3333333333333" y="64.28571428571428" width="57.777777777777764" height="32.14285714285714" as="geometry" />
        </mxCell>
        <mxCell id="KveJWd_gNbtQTZYsvec0-115" value="" style="endArrow=none;html=1;rounded=0;targetPerimeterSpacing=0;" edge="1" parent="KveJWd_gNbtQTZYsvec0-117">
          <mxGeometry width="50" height="50" relative="1" as="geometry">
            <mxPoint x="433.3333333333333" y="60.000000000000014" as="sourcePoint" />
            <mxPoint x="433.3333333333333" y="60.000000000000014" as="targetPoint" />
          </mxGeometry>
        </mxCell>
        <mxCell id="KveJWd_gNbtQTZYsvec0-116" value="" style="endArrow=oval;html=1;rounded=0;targetPerimeterSpacing=0;endFill=1;entryX=0;entryY=0.5;entryDx=0;entryDy=0;" edge="1" parent="KveJWd_gNbtQTZYsvec0-117" target="KveJWd_gNbtQTZYsvec0-114">
          <mxGeometry width="50" height="50" relative="1" as="geometry">
            <mxPoint x="433.3333333333333" y="145.71428571428575" as="sourcePoint" />
            <mxPoint x="433.3333333333333" y="60.000000000000014" as="targetPoint" />
          </mxGeometry>
        </mxCell>
      </root>
    </mxGraphModel>
  </diagram>
</mxfile>
